# xmcd
#
# Track frame offsets: 
#        150
#        21492
#        38633
#        57347
#        79266
#        96430
#        113300
#        118083
#        135624
#        153420
#        170671
#        189057
#        208111
#
# Disc length: 2997 seconds
#
# Revision: 0
# Processed by: cddbd v1.5.2PL0 Copyright (c) Steve Scherf et al.
# Submitted via: ExactAudioCopyFreeDBPlugin 1.0
#
DISCID=ab0bb30d
DTITLE=Kaosloge - Keine Menschen
DYEAR=2004
DGENRE=Rap
TTITLE0=Unbekannter Künstler - Warm Up (Intro)
TTITLE1=Unbekannter Künstler - Keine Menschen
TTITLE2=Unbekannter Künstler - Es gibt kein Battle
TTITLE3=Unbekannter Künstler - Zähl` bis 10 (Und du bist tot)
TTITLE4=Unbekannter Künstler - Ohne Worte
TTITLE5=Unbekannter Künstler - A B C Waffen
TTITLE6=Unbekannter Künstler - Bülow Ecke Potsdamer (Skit)
TTITLE7=Unbekannter Künstler - Bleib in bewegung
TTITLE8=Unbekannter Künstler - Genau so wie ich feat. Ninjah
TTITLE9=Unbekannter Künstler - Warum battlest du mich
TTITLE10=Unbekannter Künstler - Gib mir das Mic feat. Mendoza
TTITLE11=Unbekannter Künstler - Topstory
TTITLE12=Unbekannter Künstler - Das ist der Tempel
EXTD=
EXTT0=
EXTT1=
EXTT2=
EXTT3=
EXTT4=
EXTT5=
EXTT6=
EXTT7=
EXTT8=
EXTT9=
EXTT10=
EXTT11=
EXTT12=
PLAYORDER=
